# xmcd
#
# Track frame offsets:
#	150
#	12669
#	29431
#	46739
#	63488
#	92402
#	107331
#	137796
#	150011
#	176338
#	192790
#	209188
#	221220
#	234621
#	247180
#	262070
#
# Disc length: 3924 seconds
#
# Revision: 0
# Processed by: cddbd v1.5.2PL0 Copyright (c) Steve Scherf et al.
# Submitted via: EZCDAudioConverter 1.3.4.1
#
DISCID=e20f5210
DTITLE=New Mastersounds - An Introduction To... 2/2
DYEAR=1900
DGENRE=
TTITLE0=Can You Get It? [Remix]
TTITLE1=I Mean It So
TTITLE2=King Comforter
TTITLE3=Freckles
TTITLE4=Idris [Live]
TTITLE5=Kuna Matata
TTITLE6=Make Me Proud!
TTITLE7=One Note Brown [Original Version]
TTITLE8=The Road To Fuji Rock
TTITLE9=The Vandenburg Suite
TTITLE10=Up In The Air
TTITLE11=Wack!
TTITLE12=You Got It All
TTITLE13=Bring It On
TTITLE14=Talk The Talk
TTITLE15=Spooky
EXTD=
EXTT0=
EXTT1=
EXTT2=
EXTT3=
EXTT4=
EXTT5=
EXTT6=
EXTT7=
EXTT8=
EXTT9=
EXTT10=
EXTT11=
EXTT12=
EXTT13=
EXTT14=
EXTT15=
PLAYORDER=
